<svg width="32" height="32" viewBox="0 0 32 32" fill="none" xmlns="http://www.w3.org/2000/svg">
<path d="M16.0001 29.3332C8.63608 29.3332 2.66675 23.3638 2.66675 15.9998C2.66675 8.63584 8.63608 2.6665 16.0001 2.6665C23.3641 2.6665 29.3334 8.63584 29.3334 15.9998C29.3334 23.3638 23.3641 29.3332 16.0001 29.3332ZM16.0001 26.6665C18.8291 26.6665 21.5422 25.5427 23.5426 23.5423C25.5429 21.5419 26.6667 18.8288 26.6667 15.9998C26.6667 13.1709 25.5429 10.4578 23.5426 8.45737C21.5422 6.45698 18.8291 5.33317 16.0001 5.33317C13.1711 5.33317 10.458 6.45698 8.45761 8.45737C6.45722 10.4578 5.33341 13.1709 5.33341 15.9998C5.33341 18.8288 6.45722 21.5419 8.45761 23.5423C10.458 25.5427 13.1711 26.6665 16.0001 26.6665ZM14.6667 9.33317H17.3334V11.9998H14.6667V9.33317ZM14.6667 14.6665H17.3334V22.6665H14.6667V14.6665Z" fill="#B1A043"/>
</svg>
