<svg width="374" height="199" viewBox="0 0 374 199" fill="none" xmlns="http://www.w3.org/2000/svg">
<path d="M55.2469 2.55859V83.7682C55.2469 86.0952 58.3299 86.9173 59.4885 84.8993L102.522 9.94633C103.681 7.9283 106.764 8.7504 106.764 11.0774V92.287M141.108 2.55859L170.301 47.4228M199.494 92.287L170.301 47.4228M170.301 47.4228L199.494 2.55859M170.301 47.4228L141.108 92.287" stroke="#ECD55A" stroke-width="9.08642"/>
<path d="M240.383 4.83008L259.691 45.719M259.691 45.719L276.728 4.83008M259.691 45.719V92.8548" stroke="#ECD55A" stroke-width="9.08642"/>
<path d="M290.926 4.83008L310.234 45.719M310.234 45.719L327.271 4.83008M310.234 45.719V92.8548" stroke="#ECD55A" stroke-width="9.08642"/>
<path d="M240.95 5.96582L259.691 45.151M259.691 45.151L276.728 5.96582M259.691 45.151V91.151" stroke="#ECD55A" stroke-width="9.08642"/>
<path d="M92.3219 125.843H56.3827C55.7554 125.843 55.2469 126.352 55.2469 126.979V140.642M55.2469 140.642V153.72C55.2469 154.535 56.093 155.082 56.8595 154.805C85.0026 144.638 113.462 182.084 56.4734 184.982C55.8285 185.015 55.2469 184.501 55.2469 183.855V140.642ZM106.74 185.039L111.546 157.908M135.576 185.039L130.77 157.908M130.77 157.908L122.276 109.959C122.055 108.708 120.261 108.708 120.04 109.959L111.546 157.908M130.77 157.908H111.546M152.054 185.039V126.979C152.054 126.352 152.562 125.843 153.19 125.843H178.83" stroke="#DF5454" stroke-width="9.08642"/>
<path d="M191.189 185.039L195.175 160.374M217.965 185.039L213.314 160.374M213.314 160.374L204.749 114.954C204.513 113.703 202.715 113.727 202.512 114.983L195.175 160.374M213.314 160.374H195.175" stroke="#DF5454" stroke-width="9.08642"/>
<path d="M243.45 118.906L262.504 151.412M262.504 151.412L279.825 118.906M262.504 151.412V189.571C262.119 192.869 259.155 197.486 250.379 189.571" stroke="#DF5454" stroke-width="9.08642"/>
<path d="M298.804 127.809L313.715 152.602M313.715 152.602L327.271 127.809M313.715 152.602V181.706C313.414 184.221 311.095 187.743 304.226 181.706" stroke="#DF5454" stroke-width="9.08642"/>
<path d="M334.654 161.003H344.877C351.777 161.003 357.37 155.409 357.37 148.509V25.2744M357.37 25.2744L344.309 42.3115M357.37 25.2744L371 42.3115" stroke="#ECD55A" stroke-width="5.67901"/>
<path d="M39.3457 25.2745H29.1235C22.2233 25.2745 16.6297 30.8682 16.6297 37.7684V161.003M16.6297 161.003L29.6914 143.966M16.6297 161.003L3.00002 143.966" stroke="#DF5454" stroke-width="5.67901"/>
</svg>
