<svg width="953" height="360" viewBox="0 0 953 360" fill="none" xmlns="http://www.w3.org/2000/svg">
<path d="M849 168V236" stroke="white"/>
<path d="M804 167.651L765 154V318.444L804 334V167.651Z" fill="#5446EB"/>
<path d="M734 305.927V143L764 153.44V317L734 305.927Z" fill="#FF4E4E"/>
<path d="M798.948 357.772L622.948 289.403C613.334 285.669 607 276.414 607 266.1V107.77C607 90.3991 624.279 78.3229 640.591 84.2924L816.591 148.698C826.446 152.304 833 161.681 833 172.175V334.469C833 352.049 815.335 364.138 798.948 357.772Z" stroke="white"/>
<path d="M625 79.1929L760.49 1L952 79.1929M952 79.1929L832.143 158.657M952 79.1929V297.243L832.143 357" stroke="white"/>
<path d="M620 265.257V104L804 165.676V334L620 265.257Z" stroke="white"/>
<path d="M664 278.982V118L698 130.066V292L664 278.982Z" fill="#FFF960"/>
<path d="M699 292.904V130L733 141.819V306L699 292.904Z" fill="#51E4ED" fill-opacity="0.63"/>
<path d="M641 252.996V232L783 283.035V305L641 252.996Z" fill="white" stroke="white"/>
<path d="M728.281 56.1837L768.679 49L798 67.6122L791.158 81L779.104 97L726 79.0408L728.281 56.1837Z" stroke="white"/>
<path d="M196.322 93.6505H186.703V109.227H175.521V93.6505H142.904V84.8126L175.521 37.6447H186.703V84.129H196.322V93.6505ZM175.521 84.129V66.2091C175.521 59.8289 175.684 54.6043 176.01 50.5353H175.619C174.708 52.6837 173.275 55.2879 171.322 58.3478L153.598 84.129H175.521ZM250.912 73.5333C250.912 85.9357 248.91 95.1479 244.906 101.17C240.935 107.192 234.848 110.203 226.645 110.203C218.702 110.203 212.68 107.095 208.578 100.877C204.477 94.6596 202.426 85.545 202.426 73.5333C202.426 60.9357 204.411 51.6583 208.383 45.7013C212.387 39.7117 218.474 36.7169 226.645 36.7169C234.62 36.7169 240.658 39.8419 244.76 46.0919C248.861 52.3419 250.912 61.4891 250.912 73.5333ZM214.047 73.5333C214.047 83.2664 215.04 90.2163 217.025 94.3829C219.044 98.5496 222.25 100.633 226.645 100.633C231.039 100.633 234.245 98.517 236.264 94.2853C238.314 90.0535 239.34 83.1362 239.34 73.5333C239.34 63.963 238.314 57.0457 236.264 52.7814C234.245 48.4845 231.039 46.3361 226.645 46.3361C222.25 46.3361 219.044 48.4357 217.025 52.6349C215.04 56.8341 214.047 63.8003 214.047 73.5333ZM310.58 93.6505H300.961V109.227H289.779V93.6505H257.162V84.8126L289.779 37.6447H300.961V84.129H310.58V93.6505ZM289.779 84.129V66.2091C289.779 59.8289 289.942 54.6043 290.268 50.5353H289.877C288.965 52.6837 287.533 55.2879 285.58 58.3478L267.855 84.129H289.779Z" fill="white"/>
<path d="M141 119.236H312.338V124.217H141V119.236Z" fill="white"/>
<path d="M196.322 93.6505V95.0505H197.722V93.6505H196.322ZM186.703 93.6505V92.2505H185.303V93.6505H186.703ZM186.703 109.227V110.627H188.103V109.227H186.703ZM175.521 109.227H174.121V110.627H175.521V109.227ZM175.521 93.6505H176.921V92.2505H175.521V93.6505ZM142.904 93.6505H141.504V95.0505H142.904V93.6505ZM142.904 84.8126L141.753 84.0163L141.504 84.3757V84.8126H142.904ZM175.521 37.6447V36.2447H174.787L174.37 36.8484L175.521 37.6447ZM186.703 37.6447H188.103V36.2447H186.703V37.6447ZM186.703 84.129H185.303V85.529H186.703V84.129ZM196.322 84.129H197.722V82.729H196.322V84.129ZM175.521 84.129V85.529H176.921V84.129H175.521ZM176.01 50.5353L177.405 50.6469L177.526 49.1353H176.01V50.5353ZM175.619 50.5353V49.1353H174.692L174.33 49.9885L175.619 50.5353ZM171.322 58.3478L172.476 59.1409L172.489 59.1212L172.502 59.101L171.322 58.3478ZM153.598 84.129L152.444 83.3359L150.936 85.529H153.598V84.129ZM196.322 92.2505H186.703V95.0505H196.322V92.2505ZM185.303 93.6505V109.227H188.103V93.6505H185.303ZM186.703 107.827H175.521V110.627H186.703V107.827ZM176.921 109.227V93.6505H174.121V109.227H176.921ZM175.521 92.2505H142.904V95.0505H175.521V92.2505ZM144.304 93.6505V84.8126H141.504V93.6505H144.304ZM144.056 85.6089L176.673 38.4409L174.37 36.8484L141.753 84.0163L144.056 85.6089ZM175.521 39.0447H186.703V36.2447H175.521V39.0447ZM185.303 37.6447V84.129H188.103V37.6447H185.303ZM186.703 85.529H196.322V82.729H186.703V85.529ZM194.922 84.129V93.6505H197.722V84.129H194.922ZM176.921 84.129V66.2091H174.121V84.129H176.921ZM176.921 66.2091C176.921 59.848 177.084 54.6643 177.405 50.6469L174.614 50.4236C174.285 54.5443 174.121 59.8098 174.121 66.2091H176.921ZM176.01 49.1353H175.619V51.9353H176.01V49.1353ZM174.33 49.9885C173.461 52.0373 172.074 54.5685 170.142 57.5945L172.502 59.101C174.477 56.0073 175.954 53.3302 176.908 51.082L174.33 49.9885ZM170.169 57.5546L152.444 83.3359L154.751 84.9222L172.476 59.1409L170.169 57.5546ZM153.598 85.529H175.521V82.729H153.598V85.529ZM244.906 101.17L243.74 100.395L243.738 100.399L244.906 101.17ZM208.383 45.7013L207.219 44.9233L207.218 44.9247L208.383 45.7013ZM217.025 94.3829L215.762 94.9852L215.765 94.9932L217.025 94.3829ZM236.264 94.2853L235.004 93.6747L235 93.6826L236.264 94.2853ZM236.264 52.7814L234.996 53.3766L235.002 53.3881L236.264 52.7814ZM217.025 52.6349L215.764 52.0284L215.76 52.0364L217.025 52.6349ZM249.512 73.5333C249.512 85.8348 247.517 94.7143 243.74 100.395L246.072 101.945C250.303 95.5815 252.312 86.0365 252.312 73.5333H249.512ZM243.738 100.399C240.064 105.969 234.453 108.803 226.645 108.803V111.603C235.243 111.603 241.806 108.415 246.075 101.941L243.738 100.399ZM226.645 108.803C219.135 108.803 213.569 105.901 209.747 100.106L207.41 101.648C211.79 108.288 218.269 111.603 226.645 111.603V108.803ZM209.747 100.106C205.863 94.2183 203.826 85.4238 203.826 73.5333H201.026C201.026 85.6663 203.09 95.1009 207.41 101.648L209.747 100.106ZM203.826 73.5333C203.826 61.0278 205.807 52.0887 209.548 46.4779L207.218 44.9247C203.016 51.228 201.026 60.8435 201.026 73.5333H203.826ZM209.547 46.4793C213.253 40.9356 218.868 38.1169 226.645 38.1169V35.3169C218.08 35.3169 211.521 38.4878 207.219 44.9233L209.547 46.4793ZM226.645 38.1169C234.186 38.1169 239.767 41.0348 243.589 46.86L245.93 45.3238C241.55 38.649 235.054 35.3169 226.645 35.3169V38.1169ZM243.589 46.86C247.475 52.7815 249.512 61.6102 249.512 73.5333H252.312C252.312 61.3679 250.247 51.9023 245.93 45.3238L243.589 46.86ZM212.647 73.5333C212.647 83.2936 213.632 90.5163 215.762 94.9852L218.289 93.7806C216.448 89.9162 215.447 83.2392 215.447 73.5333H212.647ZM215.765 94.9932C216.862 97.2577 218.323 99.037 220.181 100.244C222.044 101.455 224.218 102.033 226.645 102.033V99.2329C224.677 99.2329 223.05 98.7696 221.707 97.8965C220.359 97.0206 219.207 95.6748 218.285 93.7726L215.765 94.9932ZM226.645 102.033C229.075 102.033 231.253 101.444 233.116 100.215C234.975 98.9883 236.433 97.1831 237.527 94.8879L235 93.6826C234.076 95.6192 232.922 96.9879 231.574 97.8775C230.231 98.7636 228.608 99.2329 226.645 99.2329V102.033ZM237.524 94.8958C239.721 90.3617 240.74 83.1719 240.74 73.5333H237.94C237.94 83.1005 236.908 89.7453 235.004 93.6747L237.524 94.8958ZM240.74 73.5333C240.74 63.925 239.72 56.7385 237.525 52.1746L235.002 53.3881C236.909 57.3529 237.94 64.001 237.94 73.5333H240.74ZM237.531 52.1862C236.438 49.8604 234.983 48.0293 233.125 46.7843C231.26 45.5349 229.08 44.9361 226.645 44.9361V47.7361C228.604 47.7361 230.224 48.2114 231.566 49.1104C232.914 50.0139 234.071 51.4054 234.996 53.3766L237.531 52.1862ZM226.645 44.9361C224.216 44.9361 222.04 45.5195 220.177 46.7395C218.319 47.9564 216.859 49.7486 215.764 52.0284L218.287 53.2413C219.21 51.322 220.363 49.9648 221.711 49.082C223.054 48.2024 224.679 47.7361 226.645 47.7361V44.9361ZM215.76 52.0364C213.632 56.5355 212.647 63.7716 212.647 73.5333H215.447C215.447 63.8289 216.447 57.1327 218.291 53.2334L215.76 52.0364ZM310.58 93.6505V95.0505H311.98V93.6505H310.58ZM300.961 93.6505V92.2505H299.561V93.6505H300.961ZM300.961 109.227V110.627H302.361V109.227H300.961ZM289.779 109.227H288.379V110.627H289.779V109.227ZM289.779 93.6505H291.179V92.2505H289.779V93.6505ZM257.162 93.6505H255.762V95.0505H257.162V93.6505ZM257.162 84.8126L256.011 84.0163L255.762 84.3757V84.8126H257.162ZM289.779 37.6447V36.2447H289.045L288.628 36.8484L289.779 37.6447ZM300.961 37.6447H302.361V36.2447H300.961V37.6447ZM300.961 84.129H299.561V85.529H300.961V84.129ZM310.58 84.129H311.98V82.729H310.58V84.129ZM289.779 84.129V85.529H291.179V84.129H289.779ZM290.268 50.5353L291.663 50.6469L291.784 49.1353H290.268V50.5353ZM289.877 50.5353V49.1353H288.95L288.588 49.9885L289.877 50.5353ZM285.58 58.3478L286.734 59.1409L286.747 59.1212L286.76 59.101L285.58 58.3478ZM267.855 84.129L266.702 83.3359L265.194 85.529H267.855V84.129ZM310.58 92.2505H300.961V95.0505H310.58V92.2505ZM299.561 93.6505V109.227H302.361V93.6505H299.561ZM300.961 107.827H289.779V110.627H300.961V107.827ZM291.179 109.227V93.6505H288.379V109.227H291.179ZM289.779 92.2505H257.162V95.0505H289.779V92.2505ZM258.562 93.6505V84.8126H255.762V93.6505H258.562ZM258.314 85.6089L290.931 38.4409L288.628 36.8484L256.011 84.0163L258.314 85.6089ZM289.779 39.0447H300.961V36.2447H289.779V39.0447ZM299.561 37.6447V84.129H302.361V37.6447H299.561ZM300.961 85.529H310.58V82.729H300.961V85.529ZM309.18 84.129V93.6505H311.98V84.129H309.18ZM291.179 84.129V66.2091H288.379V84.129H291.179ZM291.179 66.2091C291.179 59.848 291.342 54.6643 291.663 50.6469L288.872 50.4236C288.542 54.5443 288.379 59.8098 288.379 66.2091H291.179ZM290.268 49.1353H289.877V51.9353H290.268V49.1353ZM288.588 49.9885C287.719 52.0373 286.331 54.5685 284.4 57.5945L286.76 59.101C288.735 56.0073 290.212 53.3302 291.166 51.082L288.588 49.9885ZM284.426 57.5546L266.702 83.3359L269.009 84.9222L286.734 59.1409L284.426 57.5546ZM267.855 85.529H289.779V82.729H267.855V85.529Z" fill="white"/>
<path d="M141 119.236V117.836H139.6V119.236H141ZM312.338 119.236H313.738V117.836H312.338V119.236ZM312.338 124.217V125.617H313.738V124.217H312.338ZM141 124.217H139.6V125.617H141V124.217ZM141 120.636H312.338V117.836H141V120.636ZM310.938 119.236V124.217H313.738V119.236H310.938ZM312.338 122.817H141V125.617H312.338V122.817ZM142.4 124.217V119.236H139.6V124.217H142.4Z" fill="white"/>
<path opacity="0.91" d="M24.3125 271.253C24.3125 274.268 23.2188 276.62 21.0312 278.307C18.8438 279.995 15.875 280.839 12.125 280.839C8.0625 280.839 4.9375 280.315 2.75 279.268V275.425C4.15625 276.018 5.6875 276.487 7.34375 276.831C9 277.175 10.6406 277.346 12.2656 277.346C14.9219 277.346 16.9219 276.846 18.2656 275.846C19.6094 274.831 20.2812 273.425 20.2812 271.628C20.2812 270.44 20.0391 269.471 19.5547 268.721C19.0859 267.956 18.2891 267.253 17.1641 266.612C16.0547 265.971 14.3594 265.245 12.0781 264.432C8.89062 263.292 6.60938 261.94 5.23438 260.378C3.875 258.815 3.19531 256.776 3.19531 254.261C3.19531 251.62 4.1875 249.518 6.17188 247.956C8.15625 246.393 10.7812 245.612 14.0469 245.612C17.4531 245.612 20.5859 246.237 23.4453 247.487L22.2031 250.956C19.375 249.768 16.625 249.175 13.9531 249.175C11.8438 249.175 10.1953 249.628 9.00781 250.534C7.82031 251.44 7.22656 252.698 7.22656 254.307C7.22656 255.495 7.44531 256.471 7.88281 257.237C8.32031 257.987 9.05469 258.682 10.0859 259.323C11.1328 259.948 12.7266 260.643 14.8672 261.409C18.4609 262.69 20.9297 264.065 22.2734 265.534C23.6328 267.003 24.3125 268.909 24.3125 271.253ZM52.9062 267.503C52.9062 271.69 51.8516 274.964 49.7422 277.323C47.6328 279.667 44.7188 280.839 41 280.839C38.7031 280.839 36.6641 280.3 34.8828 279.221C33.1016 278.143 31.7266 276.596 30.7578 274.581C29.7891 272.565 29.3047 270.206 29.3047 267.503C29.3047 263.315 30.3516 260.057 32.4453 257.729C34.5391 255.386 37.4453 254.214 41.1641 254.214C44.7578 254.214 47.6094 255.409 49.7188 257.8C51.8438 260.19 52.9062 263.425 52.9062 267.503ZM33.3359 267.503C33.3359 270.784 33.9922 273.284 35.3047 275.003C36.6172 276.721 38.5469 277.581 41.0938 277.581C43.6406 277.581 45.5703 276.729 46.8828 275.026C48.2109 273.307 48.875 270.8 48.875 267.503C48.875 264.237 48.2109 261.761 46.8828 260.073C45.5703 258.37 43.625 257.518 41.0469 257.518C38.5 257.518 36.5781 258.354 35.2812 260.026C33.9844 261.698 33.3359 264.19 33.3359 267.503ZM71.4688 254.214C72.6094 254.214 73.6328 254.307 74.5391 254.495L74 258.104C72.9375 257.87 72 257.753 71.1875 257.753C69.1094 257.753 67.3281 258.596 65.8438 260.284C64.375 261.971 63.6406 264.073 63.6406 266.589V280.37H59.75V254.682H62.9609L63.4062 259.44H63.5938C64.5469 257.768 65.6953 256.479 67.0391 255.573C68.3828 254.667 69.8594 254.214 71.4688 254.214ZM91.0625 254.214C92.2031 254.214 93.2266 254.307 94.1328 254.495L93.5938 258.104C92.5312 257.87 91.5938 257.753 90.7812 257.753C88.7031 257.753 86.9219 258.596 85.4375 260.284C83.9688 261.971 83.2344 264.073 83.2344 266.589V280.37H79.3438V254.682H82.5547L83 259.44H83.1875C84.1406 257.768 85.2891 256.479 86.6328 255.573C87.9766 254.667 89.4531 254.214 91.0625 254.214ZM94.8594 254.682H99.0312L104.656 269.331C105.891 272.675 106.656 275.089 106.953 276.573H107.141C107.344 275.776 107.766 274.417 108.406 272.495C109.062 270.557 111.188 264.62 114.781 254.682H118.953L107.914 283.932C106.82 286.823 105.539 288.87 104.07 290.073C102.617 291.292 100.828 291.901 98.7031 291.901C97.5156 291.901 96.3438 291.768 95.1875 291.503V288.386C96.0469 288.573 97.0078 288.667 98.0703 288.667C100.742 288.667 102.648 287.167 103.789 284.167L105.219 280.511L94.8594 254.682ZM127.203 274.792L127.555 275.331C127.148 276.893 126.562 278.706 125.797 280.768C125.031 282.846 124.234 284.776 123.406 286.557H120.477C120.898 284.932 121.359 282.925 121.859 280.534C122.375 278.143 122.734 276.229 122.938 274.792H127.203ZM159.312 280.839C157.641 280.839 156.109 280.534 154.719 279.925C153.344 279.3 152.188 278.346 151.25 277.065H150.969C151.156 278.565 151.25 279.987 151.25 281.331V291.901H147.359V254.682H150.523L151.062 258.198H151.25C152.25 256.792 153.414 255.776 154.742 255.151C156.07 254.526 157.594 254.214 159.312 254.214C162.719 254.214 165.344 255.378 167.188 257.706C169.047 260.034 169.977 263.3 169.977 267.503C169.977 271.721 169.031 275.003 167.141 277.346C165.266 279.675 162.656 280.839 159.312 280.839ZM158.75 257.518C156.125 257.518 154.227 258.245 153.055 259.698C151.883 261.151 151.281 263.464 151.25 266.636V267.503C151.25 271.112 151.852 273.698 153.055 275.261C154.258 276.807 156.188 277.581 158.844 277.581C161.062 277.581 162.797 276.682 164.047 274.886C165.312 273.089 165.945 270.612 165.945 267.456C165.945 264.253 165.312 261.8 164.047 260.096C162.797 258.378 161.031 257.518 158.75 257.518ZM192.594 280.37L191.82 276.714H191.633C190.352 278.323 189.07 279.417 187.789 279.995C186.523 280.557 184.938 280.839 183.031 280.839C180.484 280.839 178.484 280.182 177.031 278.87C175.594 277.557 174.875 275.69 174.875 273.268C174.875 268.081 179.023 265.362 187.32 265.112L191.68 264.971V263.378C191.68 261.362 191.242 259.878 190.367 258.925C189.508 257.956 188.125 257.471 186.219 257.471C184.078 257.471 181.656 258.128 178.953 259.44L177.758 256.464C179.023 255.776 180.406 255.237 181.906 254.846C183.422 254.456 184.938 254.261 186.453 254.261C189.516 254.261 191.781 254.94 193.25 256.3C194.734 257.659 195.477 259.839 195.477 262.839V280.37H192.594ZM183.805 277.628C186.227 277.628 188.125 276.964 189.5 275.636C190.891 274.307 191.586 272.448 191.586 270.057V267.737L187.695 267.901C184.602 268.011 182.367 268.495 180.992 269.354C179.633 270.198 178.953 271.518 178.953 273.315C178.953 274.721 179.375 275.792 180.219 276.526C181.078 277.261 182.273 277.628 183.805 277.628ZM224.539 254.682V257.143L219.781 257.706C220.219 258.253 220.609 258.971 220.953 259.862C221.297 260.737 221.469 261.729 221.469 262.839C221.469 265.354 220.609 267.362 218.891 268.862C217.172 270.362 214.812 271.112 211.812 271.112C211.047 271.112 210.328 271.05 209.656 270.925C208 271.8 207.172 272.901 207.172 274.229C207.172 274.932 207.461 275.456 208.039 275.8C208.617 276.128 209.609 276.292 211.016 276.292H215.562C218.344 276.292 220.477 276.878 221.961 278.05C223.461 279.221 224.211 280.925 224.211 283.159C224.211 286.003 223.07 288.167 220.789 289.651C218.508 291.151 215.18 291.901 210.805 291.901C207.445 291.901 204.852 291.276 203.023 290.026C201.211 288.776 200.305 287.011 200.305 284.729C200.305 283.167 200.805 281.815 201.805 280.675C202.805 279.534 204.211 278.761 206.023 278.354C205.367 278.057 204.812 277.596 204.359 276.971C203.922 276.346 203.703 275.62 203.703 274.792C203.703 273.854 203.953 273.034 204.453 272.331C204.953 271.628 205.742 270.948 206.82 270.292C205.492 269.745 204.406 268.815 203.562 267.503C202.734 266.19 202.32 264.69 202.32 263.003C202.32 260.19 203.164 258.026 204.852 256.511C206.539 254.979 208.93 254.214 212.023 254.214C213.367 254.214 214.578 254.37 215.656 254.682H224.539ZM204.055 284.682C204.055 286.073 204.641 287.128 205.812 287.846C206.984 288.565 208.664 288.925 210.852 288.925C214.117 288.925 216.531 288.432 218.094 287.448C219.672 286.479 220.461 285.159 220.461 283.487C220.461 282.096 220.031 281.128 219.172 280.581C218.312 280.05 216.695 279.784 214.32 279.784H209.656C207.891 279.784 206.516 280.206 205.531 281.05C204.547 281.893 204.055 283.104 204.055 284.682ZM206.164 262.909C206.164 264.706 206.672 266.065 207.688 266.987C208.703 267.909 210.117 268.37 211.93 268.37C215.727 268.37 217.625 266.526 217.625 262.839C217.625 258.979 215.703 257.05 211.859 257.05C210.031 257.05 208.625 257.542 207.641 258.526C206.656 259.511 206.164 260.971 206.164 262.909ZM240.664 280.839C236.867 280.839 233.867 279.682 231.664 277.37C229.477 275.057 228.383 271.846 228.383 267.737C228.383 263.596 229.398 260.307 231.43 257.87C233.477 255.432 236.219 254.214 239.656 254.214C242.875 254.214 245.422 255.276 247.297 257.401C249.172 259.511 250.109 262.3 250.109 265.768V268.229H232.414C232.492 271.245 233.25 273.534 234.688 275.096C236.141 276.659 238.18 277.44 240.805 277.44C243.57 277.44 246.305 276.862 249.008 275.706V279.175C247.633 279.768 246.328 280.19 245.094 280.44C243.875 280.706 242.398 280.839 240.664 280.839ZM239.609 257.471C237.547 257.471 235.898 258.143 234.664 259.487C233.445 260.831 232.727 262.69 232.508 265.065H245.938C245.938 262.612 245.391 260.737 244.297 259.44C243.203 258.128 241.641 257.471 239.609 257.471ZM286.812 280.37V263.753C286.812 261.659 286.336 260.096 285.383 259.065C284.43 258.034 282.938 257.518 280.906 257.518C278.219 257.518 276.25 258.245 275 259.698C273.75 261.151 273.125 263.55 273.125 266.893V280.37H269.234V254.682H272.398L273.031 258.198H273.219C274.016 256.932 275.133 255.956 276.57 255.268C278.008 254.565 279.609 254.214 281.375 254.214C284.469 254.214 286.797 254.964 288.359 256.464C289.922 257.948 290.703 260.331 290.703 263.612V280.37H286.812ZM320.891 267.503C320.891 271.69 319.836 274.964 317.727 277.323C315.617 279.667 312.703 280.839 308.984 280.839C306.688 280.839 304.648 280.3 302.867 279.221C301.086 278.143 299.711 276.596 298.742 274.581C297.773 272.565 297.289 270.206 297.289 267.503C297.289 263.315 298.336 260.057 300.43 257.729C302.523 255.386 305.43 254.214 309.148 254.214C312.742 254.214 315.594 255.409 317.703 257.8C319.828 260.19 320.891 263.425 320.891 267.503ZM301.32 267.503C301.32 270.784 301.977 273.284 303.289 275.003C304.602 276.721 306.531 277.581 309.078 277.581C311.625 277.581 313.555 276.729 314.867 275.026C316.195 273.307 316.859 270.8 316.859 267.503C316.859 264.237 316.195 261.761 314.867 260.073C313.555 258.37 311.609 257.518 309.031 257.518C306.484 257.518 304.562 258.354 303.266 260.026C301.969 261.698 301.32 264.19 301.32 267.503ZM336.031 277.628C336.719 277.628 337.383 277.581 338.023 277.487C338.664 277.378 339.172 277.268 339.547 277.159V280.136C339.125 280.339 338.5 280.503 337.672 280.628C336.859 280.768 336.125 280.839 335.469 280.839C330.5 280.839 328.016 278.221 328.016 272.987V257.706H324.336V255.831L328.016 254.214L329.656 248.729H331.906V254.682H339.359V257.706H331.906V272.823C331.906 274.37 332.273 275.557 333.008 276.386C333.742 277.214 334.75 277.628 336.031 277.628ZM368.75 257.706H362.211V280.37H358.32V257.706H353.727V255.948L358.32 254.542V253.112C358.32 246.8 361.078 243.643 366.594 243.643C367.953 243.643 369.547 243.917 371.375 244.464L370.367 247.581C368.867 247.096 367.586 246.854 366.523 246.854C365.055 246.854 363.969 247.346 363.266 248.331C362.562 249.3 362.211 250.862 362.211 253.018V254.682H368.75V257.706ZM395.609 267.503C395.609 271.69 394.555 274.964 392.445 277.323C390.336 279.667 387.422 280.839 383.703 280.839C381.406 280.839 379.367 280.3 377.586 279.221C375.805 278.143 374.43 276.596 373.461 274.581C372.492 272.565 372.008 270.206 372.008 267.503C372.008 263.315 373.055 260.057 375.148 257.729C377.242 255.386 380.148 254.214 383.867 254.214C387.461 254.214 390.312 255.409 392.422 257.8C394.547 260.19 395.609 263.425 395.609 267.503ZM376.039 267.503C376.039 270.784 376.695 273.284 378.008 275.003C379.32 276.721 381.25 277.581 383.797 277.581C386.344 277.581 388.273 276.729 389.586 275.026C390.914 273.307 391.578 270.8 391.578 267.503C391.578 264.237 390.914 261.761 389.586 260.073C388.273 258.37 386.328 257.518 383.75 257.518C381.203 257.518 379.281 258.354 377.984 260.026C376.688 261.698 376.039 264.19 376.039 267.503ZM406.109 254.682V271.346C406.109 273.44 406.586 275.003 407.539 276.034C408.492 277.065 409.984 277.581 412.016 277.581C414.703 277.581 416.664 276.846 417.898 275.378C419.148 273.909 419.773 271.511 419.773 268.182V254.682H423.664V280.37H420.453L419.891 276.925H419.68C418.883 278.19 417.773 279.159 416.352 279.831C414.945 280.503 413.336 280.839 411.523 280.839C408.398 280.839 406.055 280.096 404.492 278.612C402.945 277.128 402.172 274.753 402.172 271.487V254.682H406.109ZM449.516 280.37V263.753C449.516 261.659 449.039 260.096 448.086 259.065C447.133 258.034 445.641 257.518 443.609 257.518C440.922 257.518 438.953 258.245 437.703 259.698C436.453 261.151 435.828 263.55 435.828 266.893V280.37H431.938V254.682H435.102L435.734 258.198H435.922C436.719 256.932 437.836 255.956 439.273 255.268C440.711 254.565 442.312 254.214 444.078 254.214C447.172 254.214 449.5 254.964 451.062 256.464C452.625 257.948 453.406 260.331 453.406 263.612V280.37H449.516ZM478.906 276.925H478.695C476.898 279.534 474.211 280.839 470.633 280.839C467.273 280.839 464.656 279.69 462.781 277.393C460.922 275.096 459.992 271.831 459.992 267.596C459.992 263.362 460.93 260.073 462.805 257.729C464.68 255.386 467.289 254.214 470.633 254.214C474.117 254.214 476.789 255.479 478.648 258.011H478.953L478.789 256.159L478.695 254.354V243.901H482.586V280.37H479.422L478.906 276.925ZM471.125 277.581C473.781 277.581 475.703 276.862 476.891 275.425C478.094 273.971 478.695 271.636 478.695 268.417V267.596C478.695 263.956 478.086 261.362 476.867 259.815C475.664 258.253 473.734 257.471 471.078 257.471C468.797 257.471 467.047 258.362 465.828 260.143C464.625 261.909 464.023 264.409 464.023 267.643C464.023 270.925 464.625 273.401 465.828 275.073C467.031 276.745 468.797 277.581 471.125 277.581Z" fill="white"/>
<path d="M798 68C802.907 69.0476 814.448 71.3143 821.36 72L838 69.4286" stroke="white"/>
<path d="M738 83L732 96.5789L733.765 107" stroke="white"/>
<path d="M739 55L735 44.5176L737.545 28" stroke="white"/>
</svg>
