<svg width="374" height="249" viewBox="0 0 374 249" fill="none" xmlns="http://www.w3.org/2000/svg">
<path d="M55.2468 2.55859V83.7682C55.2468 86.0952 58.3298 86.9173 59.4884 84.8993L102.522 9.94633C103.681 7.9283 106.764 8.7504 106.764 11.0774V92.287M141.108 2.55859L170.301 47.4228M199.494 92.287L170.301 47.4228M170.301 47.4228L199.494 2.55859M170.301 47.4228L141.108 92.287" stroke="#ECD55A" stroke-width="9.08642"/>
<path d="M240.383 4.83008L259.691 45.719M259.691 45.719L276.728 4.83008M259.691 45.719V92.8548" stroke="#ECD55A" stroke-width="9.08642"/>
<path d="M290.926 4.83008L310.235 45.719M310.235 45.719L327.272 4.83008M310.235 45.719V92.8548" stroke="#ECD55A" stroke-width="9.08642"/>
<path d="M240.951 5.96582L259.691 45.151M259.691 45.151L276.728 5.96582M259.691 45.151V91.151" stroke="#ECD55A" stroke-width="9.08642"/>
<path d="M92.3219 125.843H56.3826C55.7553 125.843 55.2468 126.352 55.2468 126.979V140.642M55.2468 140.642V153.72C55.2468 154.535 56.0929 155.082 56.8595 154.805C85.0026 144.638 113.462 182.084 56.4733 184.982C55.8285 185.015 55.2468 184.501 55.2468 183.855V140.642ZM106.74 185.039L111.546 157.908M135.576 185.039L130.77 157.908M130.77 157.908L122.276 109.959C122.055 108.708 120.261 108.708 120.04 109.959L111.546 157.908M130.77 157.908H111.546M152.054 185.039V126.979C152.054 126.352 152.562 125.843 153.19 125.843H178.83" stroke="#DF5454" stroke-width="9.08642"/>
<path d="M191.189 185.039L195.175 160.374M217.965 185.039L213.314 160.374M213.314 160.374L204.749 114.954C204.514 113.703 202.715 113.727 202.512 114.983L195.175 160.374M213.314 160.374H195.175" stroke="#DF5454" stroke-width="9.08642"/>
<path d="M243.45 118.906L262.504 151.412M262.504 151.412L279.826 118.906M262.504 151.412V189.571C262.119 192.869 259.155 197.486 250.379 189.571" stroke="#DF5454" stroke-width="9.08642"/>
<path d="M298.804 127.809L313.716 152.602M313.716 152.602L327.272 127.809M313.716 152.602V181.706C313.414 184.221 311.095 187.743 304.226 181.706" stroke="#DF5454" stroke-width="9.08642"/>
<path d="M334.654 161.003H344.877C351.777 161.003 357.37 155.409 357.37 148.509V25.2744M357.37 25.2744L344.309 42.3115M357.37 25.2744L371 42.3115" stroke="#ECD55A" stroke-width="5.67901"/>
<path d="M39.3457 25.2745H29.1235C22.2233 25.2745 16.6297 30.8682 16.6297 37.7684V161.003M16.6297 161.003L29.6914 143.966M16.6297 161.003L3.00002 143.966" stroke="#DF5454" stroke-width="5.67901"/>
<path d="M23.8125 230C23.1875 230 22.875 229.707 22.875 229.121V214.074C22.875 213.488 23.1875 213.195 23.8125 213.195H27.7969C30.7969 213.195 32.8203 213.566 33.8672 214.309C34.9219 215.043 35.4492 216.176 35.4492 217.707C35.4492 218.777 35.0547 219.605 34.2656 220.191C33.4844 220.777 32.7266 221.117 31.9922 221.211V221.246C32.7031 221.293 33.5391 221.652 34.5 222.324C35.4609 222.996 35.9414 223.945 35.9414 225.172C35.9414 226.609 35.3555 227.773 34.1836 228.664C33.0117 229.555 31.0781 230 28.3828 230H23.8125ZM26.2969 227.141H28.0078C29.6641 227.141 30.7891 226.996 31.3828 226.707C31.9844 226.418 32.2852 225.832 32.2852 224.949C32.2852 224.121 31.9375 223.551 31.2422 223.238C30.5547 222.918 29.4766 222.758 28.0078 222.758H26.2969V227.141ZM26.2969 219.992H27.832C28.8398 219.992 29.7812 219.816 30.6562 219.465C31.5391 219.113 31.9805 218.566 31.9805 217.824C31.9805 217.246 31.7344 216.809 31.2422 216.512C30.7578 216.207 29.6211 216.055 27.832 216.055H26.2969V219.992ZM38.1094 226.719C38.1094 225.156 38.8555 224.023 40.3477 223.32C41.8398 222.617 43.543 222.242 45.457 222.195V221.727C45.457 221.008 45.2773 220.5 44.918 220.203C44.5586 219.906 44.0586 219.758 43.418 219.758C42.9648 219.758 42.5625 219.824 42.2109 219.957C41.8672 220.082 41.5664 220.23 41.3086 220.402C41.0586 220.566 40.832 220.734 40.6289 220.906C40.2695 221.219 39.9727 221.234 39.7383 220.953L38.7656 219.758C38.5234 219.461 38.582 219.156 38.9414 218.844C39.2148 218.602 39.5312 218.391 39.8906 218.211C40.2578 218.031 40.7422 217.863 41.3438 217.707C41.9453 217.543 42.7266 217.461 43.6875 217.461C45.3125 217.461 46.5586 217.836 47.4258 218.586C48.3008 219.336 48.7383 220.441 48.7383 221.902V229.297C48.7383 229.766 48.5039 230 48.0352 230H46.1133C45.6914 230 45.4805 229.766 45.4805 229.297V228.945H45.457C44.9961 229.391 44.4414 229.719 43.793 229.93C43.1523 230.133 42.5625 230.234 42.0234 230.234C40.7422 230.234 39.7695 229.922 39.1055 229.297C38.4414 228.664 38.1094 227.805 38.1094 226.719ZM41.5781 226.648C41.5781 226.922 41.6328 227.16 41.7422 227.363C41.8516 227.559 42.0234 227.703 42.2578 227.797C42.4922 227.891 42.7539 227.938 43.043 227.938C43.4414 227.938 43.8281 227.883 44.2031 227.773C44.5781 227.664 44.9961 227.406 45.457 227V224.457C44.1445 224.605 43.2656 224.797 42.8203 225.031C42.375 225.266 42.0547 225.508 41.8594 225.758C41.6719 226.008 41.5781 226.305 41.5781 226.648ZM51.6914 229.18C51.3086 228.906 51.2031 228.613 51.375 228.301L51.9727 227.211C52.1836 226.82 52.5117 226.773 52.957 227.07C53.4023 227.367 53.9258 227.586 54.5273 227.727C55.1367 227.867 55.6914 227.938 56.1914 227.938C56.543 227.938 56.8711 227.902 57.1758 227.832C57.4805 227.762 57.7383 227.625 57.9492 227.422C58.1602 227.219 58.2656 226.922 58.2656 226.531C58.2656 226.297 58.2031 226.098 58.0781 225.934C57.9531 225.77 57.793 225.645 57.5977 225.559C57.4023 225.473 57.1953 225.402 56.9766 225.348C56.6875 225.277 56.2695 225.16 55.7227 224.996C55.1836 224.832 54.6641 224.641 54.1641 224.422C53.75 224.242 53.3438 223.992 52.9453 223.672C52.5547 223.344 52.2656 222.98 52.0781 222.582C51.8984 222.184 51.8086 221.691 51.8086 221.105C51.8086 220.316 52.0352 219.625 52.4883 219.031C52.9492 218.438 53.543 218.027 54.2695 217.801C54.9961 217.574 55.9023 217.461 56.9883 217.461C57.7227 217.461 58.4375 217.566 59.1328 217.777C59.8281 217.988 60.3242 218.188 60.6211 218.375C61.0898 218.672 61.207 218.988 60.9727 219.324L60.2578 220.367C60.0391 220.68 59.6875 220.703 59.2031 220.438C58.8359 220.234 58.4727 220.07 58.1133 219.945C57.7617 219.82 57.3672 219.758 56.9297 219.758C56.6328 219.758 56.3477 219.789 56.0742 219.852C55.8008 219.914 55.5664 220.031 55.3711 220.203C55.1836 220.375 55.0898 220.602 55.0898 220.883C55.0898 221.18 55.1758 221.414 55.3477 221.586C55.5273 221.75 55.7305 221.871 55.957 221.949C56.1914 222.027 56.4141 222.102 56.625 222.172C57.0625 222.312 57.5039 222.449 57.9492 222.582C58.3945 222.707 58.8477 222.859 59.3086 223.039C59.707 223.195 60.0938 223.418 60.4688 223.707C60.8438 223.996 61.1172 224.363 61.2891 224.809C61.4609 225.254 61.5469 225.762 61.5469 226.332C61.5469 227.09 61.3203 227.793 60.8672 228.441C60.4141 229.09 59.8164 229.551 59.0742 229.824C58.332 230.098 57.4688 230.234 56.4844 230.234C55.3828 230.234 54.4453 230.156 53.6719 230C52.8984 229.844 52.2383 229.57 51.6914 229.18ZM63.0703 223.848C63.0703 221.871 63.5625 220.312 64.5469 219.172C65.5391 218.031 66.9375 217.461 68.7422 217.461C70.8359 217.461 72.3906 218 73.4062 219.078C74.4219 220.156 74.9297 221.891 74.9297 224.281C74.9297 224.75 74.7109 224.984 74.2734 224.984H66.5391C66.6641 226.281 66.9844 227.098 67.5 227.434C68.0156 227.77 68.6133 227.938 69.293 227.938C69.9414 227.938 70.4375 227.852 70.7812 227.68C71.125 227.508 71.4141 227.273 71.6484 226.977C71.9141 226.633 72.2422 226.578 72.6328 226.812L73.8047 227.527C74.2656 227.809 74.332 228.145 74.0039 228.535C73.5273 229.105 72.9688 229.531 72.3281 229.812C71.6875 230.094 70.6758 230.234 69.293 230.234C67.0508 230.234 65.4531 229.664 64.5 228.523C63.5469 227.383 63.0703 225.824 63.0703 223.848ZM66.5508 222.641H71.6484C71.6484 221.797 71.4375 221.109 71.0156 220.578C70.5938 220.039 69.9219 219.77 69 219.77C68.2656 219.77 67.6836 220.027 67.2539 220.543C66.8242 221.051 66.5898 221.75 66.5508 222.641ZM76.8281 223.848C76.8281 222.129 77.1992 220.637 77.9414 219.371C78.6914 218.098 79.9844 217.461 81.8203 217.461C82.5234 217.461 83.125 217.562 83.625 217.766C84.125 217.969 84.5781 218.406 84.9844 219.078H85.0312C85 218.766 84.9844 218.453 84.9844 218.141V213.406C84.9844 212.938 85.2188 212.703 85.6875 212.703H87.5625C88.0312 212.703 88.2656 212.938 88.2656 213.406V229.297C88.2656 229.766 88.0312 230 87.5625 230H85.7109C85.3203 230 85.1094 229.766 85.0781 229.297L85.0312 228.617H84.9844C84.5781 229.289 84.125 229.727 83.625 229.93C83.125 230.133 82.5234 230.234 81.8203 230.234C79.9844 230.234 78.6914 229.602 77.9414 228.336C77.1992 227.062 76.8281 225.566 76.8281 223.848ZM80.2969 223.848C80.2969 225.098 80.457 226.094 80.7773 226.836C81.1055 227.57 81.7969 227.938 82.8516 227.938C83.4375 227.938 83.9375 227.609 84.3516 226.953C84.7734 226.289 84.9844 225.43 84.9844 224.375V223.32C84.9844 222.266 84.7734 221.41 84.3516 220.754C83.9375 220.09 83.4375 219.758 82.8516 219.758C81.7969 219.758 81.1055 220.129 80.7773 220.871C80.457 221.605 80.2969 222.598 80.2969 223.848ZM99 223.848C99 221.855 99.5117 220.293 100.535 219.16C101.566 218.027 103.098 217.461 105.129 217.461C107.16 217.461 108.688 218.027 109.711 219.16C110.742 220.293 111.258 221.855 111.258 223.848C111.258 225.84 110.742 227.402 109.711 228.535C108.688 229.668 107.16 230.234 105.129 230.234C103.098 230.234 101.566 229.668 100.535 228.535C99.5117 227.402 99 225.84 99 223.848ZM102.469 223.848C102.469 225.332 102.695 226.387 103.148 227.012C103.609 227.629 104.27 227.938 105.129 227.938C105.988 227.938 106.645 227.629 107.098 227.012C107.559 226.387 107.789 225.332 107.789 223.848C107.789 222.363 107.559 221.312 107.098 220.695C106.645 220.07 105.988 219.758 105.129 219.758C104.27 219.758 103.609 220.07 103.148 220.695C102.695 221.312 102.469 222.363 102.469 223.848ZM114.492 230C114.023 230 113.789 229.766 113.789 229.297V218.398C113.789 217.93 114.023 217.695 114.492 217.695H116.344C116.812 217.695 117.047 217.93 117.047 218.398V219.078H117.094C117.453 218.461 117.91 218.039 118.465 217.812C119.02 217.578 119.688 217.461 120.469 217.461C121.688 217.461 122.695 217.844 123.492 218.609C124.289 219.375 124.688 220.773 124.688 222.805V229.297C124.688 229.766 124.453 230 123.984 230H122.109C121.641 230 121.406 229.766 121.406 229.297V223.648C121.406 221.945 121.289 220.871 121.055 220.426C120.82 219.98 120.316 219.758 119.543 219.758C118.723 219.758 118.105 220.078 117.691 220.719C117.277 221.352 117.07 222.672 117.07 224.68V229.297C117.07 229.766 116.836 230 116.367 230H114.492ZM135.809 229.18C135.426 228.906 135.32 228.613 135.492 228.301L136.09 227.211C136.301 226.82 136.629 226.773 137.074 227.07C137.52 227.367 138.043 227.586 138.645 227.727C139.254 227.867 139.809 227.938 140.309 227.938C140.66 227.938 140.988 227.902 141.293 227.832C141.598 227.762 141.855 227.625 142.066 227.422C142.277 227.219 142.383 226.922 142.383 226.531C142.383 226.297 142.32 226.098 142.195 225.934C142.07 225.77 141.91 225.645 141.715 225.559C141.52 225.473 141.312 225.402 141.094 225.348C140.805 225.277 140.387 225.16 139.84 224.996C139.301 224.832 138.781 224.641 138.281 224.422C137.867 224.242 137.461 223.992 137.062 223.672C136.672 223.344 136.383 222.98 136.195 222.582C136.016 222.184 135.926 221.691 135.926 221.105C135.926 220.316 136.152 219.625 136.605 219.031C137.066 218.438 137.66 218.027 138.387 217.801C139.113 217.574 140.02 217.461 141.105 217.461C141.84 217.461 142.555 217.566 143.25 217.777C143.945 217.988 144.441 218.188 144.738 218.375C145.207 218.672 145.324 218.988 145.09 219.324L144.375 220.367C144.156 220.68 143.805 220.703 143.32 220.438C142.953 220.234 142.59 220.07 142.23 219.945C141.879 219.82 141.484 219.758 141.047 219.758C140.75 219.758 140.465 219.789 140.191 219.852C139.918 219.914 139.684 220.031 139.488 220.203C139.301 220.375 139.207 220.602 139.207 220.883C139.207 221.18 139.293 221.414 139.465 221.586C139.645 221.75 139.848 221.871 140.074 221.949C140.309 222.027 140.531 222.102 140.742 222.172C141.18 222.312 141.621 222.449 142.066 222.582C142.512 222.707 142.965 222.859 143.426 223.039C143.824 223.195 144.211 223.418 144.586 223.707C144.961 223.996 145.234 224.363 145.406 224.809C145.578 225.254 145.664 225.762 145.664 226.332C145.664 227.09 145.438 227.793 144.984 228.441C144.531 229.09 143.934 229.551 143.191 229.824C142.449 230.098 141.586 230.234 140.602 230.234C139.5 230.234 138.562 230.156 137.789 230C137.016 229.844 136.355 229.57 135.809 229.18ZM147.188 223.848C147.188 221.871 147.68 220.312 148.664 219.172C149.656 218.031 151.055 217.461 152.859 217.461C154.953 217.461 156.508 218 157.523 219.078C158.539 220.156 159.047 221.891 159.047 224.281C159.047 224.75 158.828 224.984 158.391 224.984H150.656C150.781 226.281 151.102 227.098 151.617 227.434C152.133 227.77 152.73 227.938 153.41 227.938C154.059 227.938 154.555 227.852 154.898 227.68C155.242 227.508 155.531 227.273 155.766 226.977C156.031 226.633 156.359 226.578 156.75 226.812L157.922 227.527C158.383 227.809 158.449 228.145 158.121 228.535C157.645 229.105 157.086 229.531 156.445 229.812C155.805 230.094 154.793 230.234 153.41 230.234C151.168 230.234 149.57 229.664 148.617 228.523C147.664 227.383 147.188 225.824 147.188 223.848ZM150.668 222.641H155.766C155.766 221.797 155.555 221.109 155.133 220.578C154.711 220.039 154.039 219.77 153.117 219.77C152.383 219.77 151.801 220.027 151.371 220.543C150.941 221.051 150.707 221.75 150.668 222.641ZM160.945 226.719C160.945 225.156 161.691 224.023 163.184 223.32C164.676 222.617 166.379 222.242 168.293 222.195V221.727C168.293 221.008 168.113 220.5 167.754 220.203C167.395 219.906 166.895 219.758 166.254 219.758C165.801 219.758 165.398 219.824 165.047 219.957C164.703 220.082 164.402 220.23 164.145 220.402C163.895 220.566 163.668 220.734 163.465 220.906C163.105 221.219 162.809 221.234 162.574 220.953L161.602 219.758C161.359 219.461 161.418 219.156 161.777 218.844C162.051 218.602 162.367 218.391 162.727 218.211C163.094 218.031 163.578 217.863 164.18 217.707C164.781 217.543 165.562 217.461 166.523 217.461C168.148 217.461 169.395 217.836 170.262 218.586C171.137 219.336 171.574 220.441 171.574 221.902V229.297C171.574 229.766 171.34 230 170.871 230H168.949C168.527 230 168.316 229.766 168.316 229.297V228.945H168.293C167.832 229.391 167.277 229.719 166.629 229.93C165.988 230.133 165.398 230.234 164.859 230.234C163.578 230.234 162.605 229.922 161.941 229.297C161.277 228.664 160.945 227.805 160.945 226.719ZM164.414 226.648C164.414 226.922 164.469 227.16 164.578 227.363C164.688 227.559 164.859 227.703 165.094 227.797C165.328 227.891 165.59 227.938 165.879 227.938C166.277 227.938 166.664 227.883 167.039 227.773C167.414 227.664 167.832 227.406 168.293 227V224.457C166.98 224.605 166.102 224.797 165.656 225.031C165.211 225.266 164.891 225.508 164.695 225.758C164.508 226.008 164.414 226.305 164.414 226.648ZM175.477 230C175.008 230 174.773 229.766 174.773 229.297V218.398C174.773 217.93 175.008 217.695 175.477 217.695H177.328C177.797 217.695 178.031 217.93 178.031 218.398V219.359H178.078C178.281 218.859 178.621 218.418 179.098 218.035C179.574 217.652 180.137 217.461 180.785 217.461C181.23 217.461 181.598 217.516 181.887 217.625C182.16 217.727 182.266 217.914 182.203 218.188L181.875 219.582C181.805 219.895 181.594 219.988 181.242 219.863C181.039 219.793 180.844 219.758 180.656 219.758C179.906 219.758 179.285 220.207 178.793 221.105C178.301 222.004 178.055 223.312 178.055 225.031V229.297C178.055 229.766 177.82 230 177.352 230H175.477ZM183.328 223.848C183.328 221.855 183.828 220.293 184.828 219.16C185.828 218.027 187.363 217.461 189.434 217.461C190.645 217.461 191.586 217.621 192.258 217.941C192.93 218.262 193.469 218.73 193.875 219.348C194.117 219.715 194.078 220.004 193.758 220.215L192.516 221.035C192.164 221.27 191.855 221.18 191.59 220.766C191.457 220.562 191.203 220.344 190.828 220.109C190.453 219.875 189.988 219.758 189.434 219.758C188.551 219.758 187.891 220.07 187.453 220.695C187.016 221.312 186.797 222.363 186.797 223.848C186.797 225.332 187.016 226.387 187.453 227.012C187.891 227.629 188.551 227.938 189.434 227.938C190.066 227.938 190.578 227.805 190.969 227.539C191.359 227.273 191.727 226.93 192.07 226.508C192.367 226.148 192.68 226.098 193.008 226.355L194.098 227.211C194.426 227.469 194.445 227.812 194.156 228.242C193.852 228.695 193.332 229.141 192.598 229.578C191.871 230.016 190.816 230.234 189.434 230.234C187.363 230.234 185.828 229.668 184.828 228.535C183.828 227.402 183.328 225.84 183.328 223.848ZM197.414 230C196.945 230 196.711 229.766 196.711 229.297V213.406C196.711 212.938 196.945 212.703 197.414 212.703H199.289C199.758 212.703 199.992 212.938 199.992 213.406V218.141C199.992 218.453 199.977 218.766 199.945 219.078H200.016C200.375 218.461 200.832 218.039 201.387 217.812C201.941 217.578 202.609 217.461 203.391 217.461C204.609 217.461 205.617 217.844 206.414 218.609C207.211 219.375 207.609 220.773 207.609 222.805V229.297C207.609 229.766 207.375 230 206.906 230H205.031C204.562 230 204.328 229.766 204.328 229.297V223.648C204.328 221.945 204.211 220.871 203.977 220.426C203.742 219.98 203.238 219.758 202.465 219.758C201.645 219.758 201.027 220.078 200.613 220.719C200.199 221.352 199.992 222.672 199.992 224.68V229.297C199.992 229.766 199.758 230 199.289 230H197.414ZM210.117 223.848C210.117 221.871 210.609 220.312 211.594 219.172C212.586 218.031 213.984 217.461 215.789 217.461C217.883 217.461 219.438 218 220.453 219.078C221.469 220.156 221.977 221.891 221.977 224.281C221.977 224.75 221.758 224.984 221.32 224.984H213.586C213.711 226.281 214.031 227.098 214.547 227.434C215.062 227.77 215.66 227.938 216.34 227.938C216.988 227.938 217.484 227.852 217.828 227.68C218.172 227.508 218.461 227.273 218.695 226.977C218.961 226.633 219.289 226.578 219.68 226.812L220.852 227.527C221.312 227.809 221.379 228.145 221.051 228.535C220.574 229.105 220.016 229.531 219.375 229.812C218.734 230.094 217.723 230.234 216.34 230.234C214.098 230.234 212.5 229.664 211.547 228.523C210.594 227.383 210.117 225.824 210.117 223.848ZM213.598 222.641H218.695C218.695 221.797 218.484 221.109 218.062 220.578C217.641 220.039 216.969 219.77 216.047 219.77C215.312 219.77 214.73 220.027 214.301 220.543C213.871 221.051 213.637 221.75 213.598 222.641ZM224.285 229.18C223.902 228.906 223.797 228.613 223.969 228.301L224.566 227.211C224.777 226.82 225.105 226.773 225.551 227.07C225.996 227.367 226.52 227.586 227.121 227.727C227.73 227.867 228.285 227.938 228.785 227.938C229.137 227.938 229.465 227.902 229.77 227.832C230.074 227.762 230.332 227.625 230.543 227.422C230.754 227.219 230.859 226.922 230.859 226.531C230.859 226.297 230.797 226.098 230.672 225.934C230.547 225.77 230.387 225.645 230.191 225.559C229.996 225.473 229.789 225.402 229.57 225.348C229.281 225.277 228.863 225.16 228.316 224.996C227.777 224.832 227.258 224.641 226.758 224.422C226.344 224.242 225.938 223.992 225.539 223.672C225.148 223.344 224.859 222.98 224.672 222.582C224.492 222.184 224.402 221.691 224.402 221.105C224.402 220.316 224.629 219.625 225.082 219.031C225.543 218.438 226.137 218.027 226.863 217.801C227.59 217.574 228.496 217.461 229.582 217.461C230.316 217.461 231.031 217.566 231.727 217.777C232.422 217.988 232.918 218.188 233.215 218.375C233.684 218.672 233.801 218.988 233.566 219.324L232.852 220.367C232.633 220.68 232.281 220.703 231.797 220.438C231.43 220.234 231.066 220.07 230.707 219.945C230.355 219.82 229.961 219.758 229.523 219.758C229.227 219.758 228.941 219.789 228.668 219.852C228.395 219.914 228.16 220.031 227.965 220.203C227.777 220.375 227.684 220.602 227.684 220.883C227.684 221.18 227.77 221.414 227.941 221.586C228.121 221.75 228.324 221.871 228.551 221.949C228.785 222.027 229.008 222.102 229.219 222.172C229.656 222.312 230.098 222.449 230.543 222.582C230.988 222.707 231.441 222.859 231.902 223.039C232.301 223.195 232.688 223.418 233.062 223.707C233.438 223.996 233.711 224.363 233.883 224.809C234.055 225.254 234.141 225.762 234.141 226.332C234.141 227.09 233.914 227.793 233.461 228.441C233.008 229.09 232.41 229.551 231.668 229.824C230.926 230.098 230.062 230.234 229.078 230.234C227.977 230.234 227.039 230.156 226.266 230C225.492 229.844 224.832 229.57 224.285 229.18ZM245.227 234.688C244.758 234.688 244.523 234.453 244.523 233.984V218.398C244.523 217.93 244.758 217.695 245.227 217.695H247.078C247.469 217.695 247.68 217.93 247.711 218.398L247.758 219.078H247.805C248.211 218.406 248.664 217.969 249.164 217.766C249.664 217.562 250.266 217.461 250.969 217.461C252.805 217.461 254.094 218.098 254.836 219.371C255.586 220.637 255.961 222.129 255.961 223.848C255.961 225.566 255.586 227.062 254.836 228.336C254.094 229.602 252.805 230.234 250.969 230.234C250.266 230.234 249.664 230.133 249.164 229.93C248.664 229.727 248.211 229.289 247.805 228.617H247.758C247.789 228.93 247.805 229.242 247.805 229.555V233.984C247.805 234.453 247.57 234.688 247.102 234.688H245.227ZM247.805 224.375C247.805 225.43 248.012 226.289 248.426 226.953C248.848 227.609 249.352 227.938 249.938 227.938C250.992 227.938 251.68 227.57 252 226.836C252.328 226.094 252.492 225.098 252.492 223.848C252.492 222.598 252.328 221.605 252 220.871C251.68 220.129 250.992 219.758 249.938 219.758C249.352 219.758 248.848 220.09 248.426 220.754C248.012 221.41 247.805 222.266 247.805 223.32V224.375ZM257.836 223.848C257.836 221.871 258.328 220.312 259.312 219.172C260.305 218.031 261.703 217.461 263.508 217.461C265.602 217.461 267.156 218 268.172 219.078C269.188 220.156 269.695 221.891 269.695 224.281C269.695 224.75 269.477 224.984 269.039 224.984H261.305C261.43 226.281 261.75 227.098 262.266 227.434C262.781 227.77 263.379 227.938 264.059 227.938C264.707 227.938 265.203 227.852 265.547 227.68C265.891 227.508 266.18 227.273 266.414 226.977C266.68 226.633 267.008 226.578 267.398 226.812L268.57 227.527C269.031 227.809 269.098 228.145 268.77 228.535C268.293 229.105 267.734 229.531 267.094 229.812C266.453 230.094 265.441 230.234 264.059 230.234C261.816 230.234 260.219 229.664 259.266 228.523C258.312 227.383 257.836 225.824 257.836 223.848ZM261.316 222.641H266.414C266.414 221.797 266.203 221.109 265.781 220.578C265.359 220.039 264.688 219.77 263.766 219.77C263.031 219.77 262.449 220.027 262.02 220.543C261.59 221.051 261.355 221.75 261.316 222.641ZM272.953 230C272.484 230 272.25 229.766 272.25 229.297V218.398C272.25 217.93 272.484 217.695 272.953 217.695H274.805C275.273 217.695 275.508 217.93 275.508 218.398V219.359H275.555C275.758 218.859 276.098 218.418 276.574 218.035C277.051 217.652 277.613 217.461 278.262 217.461C278.707 217.461 279.074 217.516 279.363 217.625C279.637 217.727 279.742 217.914 279.68 218.188L279.352 219.582C279.281 219.895 279.07 219.988 278.719 219.863C278.516 219.793 278.32 219.758 278.133 219.758C277.383 219.758 276.762 220.207 276.27 221.105C275.777 222.004 275.531 223.312 275.531 225.031V229.297C275.531 229.766 275.297 230 274.828 230H272.953ZM290.367 230C289.898 230 289.664 229.766 289.664 229.297V218.398C289.664 217.93 289.898 217.695 290.367 217.695H292.219C292.688 217.695 292.922 217.93 292.922 218.398V219.078H292.969C293.195 218.578 293.578 218.184 294.117 217.895C294.656 217.605 295.16 217.461 295.629 217.461C296.566 217.461 297.293 217.68 297.809 218.117C298.332 218.555 298.691 219.043 298.887 219.582H298.934C299.613 218.699 300.227 218.125 300.773 217.859C301.328 217.594 302.035 217.461 302.895 217.461C304.051 217.461 305.023 217.844 305.812 218.609C306.609 219.375 307.008 220.773 307.008 222.805V229.297C307.008 229.766 306.773 230 306.305 230H304.43C303.961 230 303.727 229.766 303.727 229.297V223.648C303.727 221.945 303.609 220.871 303.375 220.426C303.148 219.98 302.742 219.758 302.156 219.758C301.609 219.758 301.109 220.078 300.656 220.719C300.203 221.359 299.977 222.68 299.977 224.68V229.297C299.977 229.766 299.742 230 299.273 230H297.398C296.93 230 296.695 229.766 296.695 229.297V223.648C296.695 221.945 296.578 220.871 296.344 220.426C296.117 219.98 295.711 219.758 295.125 219.758C294.578 219.758 294.078 220.078 293.625 220.719C293.172 221.352 292.945 222.672 292.945 224.68V229.297C292.945 229.766 292.711 230 292.242 230H290.367ZM309.516 223.848C309.516 221.855 310.027 220.293 311.051 219.16C312.082 218.027 313.613 217.461 315.645 217.461C317.676 217.461 319.203 218.027 320.227 219.16C321.258 220.293 321.773 221.855 321.773 223.848C321.773 225.84 321.258 227.402 320.227 228.535C319.203 229.668 317.676 230.234 315.645 230.234C313.613 230.234 312.082 229.668 311.051 228.535C310.027 227.402 309.516 225.84 309.516 223.848ZM312.984 223.848C312.984 225.332 313.211 226.387 313.664 227.012C314.125 227.629 314.785 227.938 315.645 227.938C316.504 227.938 317.16 227.629 317.613 227.012C318.074 226.387 318.305 225.332 318.305 223.848C318.305 222.363 318.074 221.312 317.613 220.695C317.16 220.07 316.504 219.758 315.645 219.758C314.785 219.758 314.125 220.07 313.664 220.695C313.211 221.312 312.984 222.363 312.984 223.848ZM325.008 230C324.539 230 324.305 229.766 324.305 229.297V218.398C324.305 217.93 324.539 217.695 325.008 217.695H326.859C327.328 217.695 327.562 217.93 327.562 218.398V219.078H327.609C327.969 218.461 328.426 218.039 328.98 217.812C329.535 217.578 330.203 217.461 330.984 217.461C332.203 217.461 333.211 217.844 334.008 218.609C334.805 219.375 335.203 220.773 335.203 222.805V229.297C335.203 229.766 334.969 230 334.5 230H332.625C332.156 230 331.922 229.766 331.922 229.297V223.648C331.922 221.945 331.805 220.871 331.57 220.426C331.336 219.98 330.832 219.758 330.059 219.758C329.238 219.758 328.621 220.078 328.207 220.719C327.793 221.352 327.586 222.672 327.586 224.68V229.297C327.586 229.766 327.352 230 326.883 230H325.008ZM337.957 220.039C337.496 220.039 337.266 219.844 337.266 219.453V218.281C337.266 217.891 337.496 217.695 337.957 217.695H338.754V217.285C338.754 216.934 338.836 216.613 339 216.324L339.902 214.742C340.074 214.445 340.277 214.297 340.512 214.297H341.332C341.801 214.297 342.035 214.531 342.035 215V217.695H343.934C344.395 217.695 344.625 217.891 344.625 218.281V219.453C344.625 219.844 344.395 220.039 343.934 220.039H342.035V225.852C342.035 226.648 342.09 227.223 342.199 227.574C342.316 227.918 342.613 228.09 343.09 228.09C343.332 228.09 343.605 228.051 343.91 227.973C344.215 227.887 344.453 227.805 344.625 227.727C344.898 227.602 345.078 227.691 345.164 227.996L345.516 229.332C345.586 229.598 345.484 229.793 345.211 229.918C344.953 230.035 344.598 230.141 344.145 230.234C343.699 230.336 343.25 230.387 342.797 230.387C341.68 230.387 340.727 230.156 339.938 229.695C339.148 229.234 338.754 228.285 338.754 226.848V220.039H337.957ZM348.422 230C347.953 230 347.719 229.766 347.719 229.297V213.406C347.719 212.938 347.953 212.703 348.422 212.703H350.297C350.766 212.703 351 212.938 351 213.406V218.141C351 218.453 350.984 218.766 350.953 219.078H351.023C351.383 218.461 351.84 218.039 352.395 217.812C352.949 217.578 353.617 217.461 354.398 217.461C355.617 217.461 356.625 217.844 357.422 218.609C358.219 219.375 358.617 220.773 358.617 222.805V229.297C358.617 229.766 358.383 230 357.914 230H356.039C355.57 230 355.336 229.766 355.336 229.297V223.648C355.336 221.945 355.219 220.871 354.984 220.426C354.75 219.98 354.246 219.758 353.473 219.758C352.652 219.758 352.035 220.078 351.621 220.719C351.207 221.352 351 222.672 351 224.68V229.297C351 229.766 350.766 230 350.297 230H348.422Z" fill="white"/>
<path d="M89 248H285.5" stroke="white" stroke-width="2" stroke-linecap="round"/>
</svg>
